<?xml version="1.0" standalone="no"?><!DOCTYPE svg PUBLIC "-//W3C//DTD SVG 1.1//EN" "http://www.w3.org/Graphics/SVG/1.1/DTD/svg11.dtd"><svg t="1700999456619" class="icon" viewBox="0 0 1024 1024" version="1.1" xmlns="http://www.w3.org/2000/svg" p-id="1172" xmlns:xlink="http://www.w3.org/1999/xlink" width="200" height="200"><path d="M785.92 743.1168l0.512-0.7168A356.6592 356.6592 0 0 0 870.4 512a357.0176 357.0176 0 0 0-83.8144-230.4l-0.5632-0.6656-2.56-2.9184-1.024-1.1264-3.2256-3.7888-0.1024-0.0512-3.6864-4.096-0.0512-0.0512c-2.56-2.7648-5.12-5.4784-7.7824-8.0896l-0.0512-0.1024-3.84-3.84-0.256-0.256a134.8608 134.8608 0 0 0-4.864-4.608l-2.4064-2.2528-0.8192-0.8192A356.6592 356.6592 0 0 0 512 153.6a357.0176 357.0176 0 0 0-243.456 95.3344l-0.768 0.8192a64.7168 64.7168 0 0 0-3.6864 3.5328l-3.584 3.4304-0.256 0.256-3.84 3.84-0.1024 0.0512-7.7312 8.0896-0.1024 0.1024a169.6768 169.6768 0 0 0-3.6864 4.096H244.736a73.4208 73.4208 0 0 0-3.2768 3.7888l-1.024 1.1264c-0.8192 0.9728-1.6384 2.048-2.56 2.9696-0.1024 0.256-0.3584 0.4096-0.512 0.6656A357.0176 357.0176 0 0 0 153.6 512c0 87.7568 31.5392 168.0896 83.8656 230.4l0.512 0.7168 2.5088 2.9696 0.9728 1.1264 3.2768 3.7376 0.0512 0.1536c1.2288 1.3824 2.4064 2.7136 3.6864 3.9936l0.1024 0.1024 7.68 8.0896 0.0512 0.0512 3.7888 3.7888 0.2048 0.256A357.7344 357.7344 0 0 0 512 870.4a357.0688 357.0688 0 0 0 251.392-103.0144l0.3072-0.256c1.28-1.28 2.56-2.5088 3.7376-3.7888l0.1024-0.0512c2.6112-2.6624 5.1712-5.376 7.68-8.0896l0.0512-0.1024c1.2288-1.3312 2.5088-2.6112 3.6864-3.9936 0-0.0512 0.1024-0.0512 0.1024-0.1536 1.1264-1.1776 2.2016-2.4576 3.2768-3.7376l0.9216-1.1264c1.024-1.024 1.8432-2.048 2.6624-2.9696z m3.2768-114.0736c-11.0592 26.112-25.6 50.2272-43.3664 72.192a355.1744 355.1744 0 0 0-65.1776-44.7488c9.2672-37.5296 15.0016-78.7456 16.5376-122.0608h114.7904a299.1104 299.1104 0 0 1-22.784 94.6176z m22.784-139.4176h-114.7904a597.9648 597.9648 0 0 0-16.5376-122.112 355.2256 355.2256 0 0 0 65.1776-44.6976 299.1616 299.1616 0 0 1 66.1504 166.8096z m-182.9376-254.8224c31.744 13.4144 60.6208 32 86.0672 55.3472-14.7968 12.6464-30.72 23.7568-47.5136 33.4336-12.544-35.9936-28.672-67.2768-47.36-92.3136 2.9696 1.1264 5.9392 2.304 8.8064 3.5328zM556.544 795.2896a90.624 90.624 0 0 1-22.1184 13.1072v-148.3776a311.3984 311.3984 0 0 1 92.5184 20.9408c-6.656 19.6608-14.336 37.888-23.1936 54.272-13.9264 25.9072-30.208 46.592-47.2064 60.0576z m47.2064-506.4704c8.8064 16.4864 16.5888 34.6112 23.1936 54.2208a311.296 311.296 0 0 1-92.5184 20.992V215.6544c7.3216 2.9184 14.7968 7.2704 22.1184 13.1072 16.9984 13.312 33.28 34.048 47.2064 60.0064z m-69.3248 326.2976v-80.6912h117.9648c-1.28 35.328-5.632 69.632-13.056 102.1952l-0.2048 1.024a355.9936 355.9936 0 0 0-104.7552-22.528z m0-125.4912V408.8832a356.0448 356.0448 0 0 0 104.704-22.528l0.256 1.024c7.3216 32.5632 11.776 66.7648 13.0048 102.2464h-118.016z m-44.8512 44.7488v80.7424a355.9936 355.9936 0 0 0-104.704 22.528l-0.256-1.024a554.8032 554.8032 0 0 1-13.0048-102.1952h117.9648z m-117.9648-44.7488c1.28-35.3792 5.632-69.6832 13.056-102.2464l0.2048-1.024a355.4816 355.4816 0 0 0 104.704 22.528v80.7424H371.6096z m117.9648 170.3936v148.2752a89.4464 89.4464 0 0 1-22.1184-13.1072c-16.9984-13.312-33.3824-34.1504-47.3088-60.0576a361.472 361.472 0 0 1-23.1936-54.272 312.32 312.32 0 0 1 92.672-20.8384z m0-296.0384A311.296 311.296 0 0 1 397.056 343.04c6.656-19.6608 14.336-37.888 23.1936-54.272 13.9264-25.9072 30.208-46.6944 47.2576-60.0576 7.3728-5.7344 14.7456-10.1376 22.1696-13.1072v148.3776h-0.1024zM395.008 234.8032c2.9696-1.2288 5.8368-2.4064 8.8064-3.5328-18.7392 25.088-34.816 56.32-47.36 92.3136a310.1184 310.1184 0 0 1-47.5136-33.4336 299.008 299.008 0 0 1 86.0672-55.3472zM234.8032 394.9568c11.0592-26.112 25.6-50.2272 43.3664-72.192 19.9168 17.2544 41.728 32.256 65.1776 44.7488a598.1184 598.1184 0 0 0-16.5376 122.112H211.968c2.3552-32.768 10.0864-64.512 22.784-94.6688z m-22.784 139.4176h114.7904c1.536 43.3664 7.2704 84.5824 16.5376 122.112a355.2256 355.2256 0 0 0-65.1776 44.6976 300.3904 300.3904 0 0 1-66.1504-166.8096z m182.9376 254.8224a299.008 299.008 0 0 1-86.0672-55.3472c14.7968-12.6464 30.72-23.7568 47.5136-33.4336 12.544 35.9936 28.672 67.2768 47.36 92.3136a296.5504 296.5504 0 0 1-8.8064-3.5328z m234.0864 0c-2.9696 1.2288-5.8368 2.4064-8.8064 3.5328 18.7392-25.088 34.816-56.32 47.36-92.3136 16.7936 9.5744 32.768 20.7872 47.5136 33.4336a299.008 299.008 0 0 1-86.0672 55.3472z" fill="#d4237a" p-id="1173"></path></svg>