<?xml version="1.0" standalone="no"?><!DOCTYPE svg PUBLIC "-//W3C//DTD SVG 1.1//EN" "http://www.w3.org/Graphics/SVG/1.1/DTD/svg11.dtd"><svg t="1701249479267" class="icon" viewBox="0 0 1214 1024" version="1.1" xmlns="http://www.w3.org/2000/svg" p-id="13122" width="1896.875" height="1600" xmlns:xlink="http://www.w3.org/1999/xlink"><path d="M228.257226 161.839851c9.782453 3.260818 18.912742 7.825962 27.390867 14.347597 6.521635 7.825962 11.738943 17.608415 14.99976 27.390867 1.956491 5.217308 7.825962 7.173799 13.04327 5.217308 2.608654-1.304327 3.912981-2.608654 5.217308-5.217308 3.260818-9.130289 7.825962-17.608415 13.695434-25.434376 9.130289-7.173799 18.912742-12.391107 29.999521-15.651924 4.565145-1.304327 7.173799-6.521635 5.869471-11.738943-0.652164-2.608654-3.260818-4.565145-5.869471-5.869472-10.434616-3.260818-20.217069-7.825962-29.347358-14.347597-6.521635-7.825962-11.08678-16.304088-14.347597-26.08654-1.956491-5.217308-7.825962-7.173799-13.04327-5.217308-1.956491 1.304327-3.912981 2.608654-5.217308 5.217308-3.260818 9.782453-8.478126 18.260578-14.99976 26.08654-8.478126 6.521635-17.608415 11.08678-28.043031 14.347597-4.565145 1.304327-7.173799 6.521635-5.869472 11.08678 1.304327 3.260818 3.912981 5.217308 6.521636 5.869471zM1205.198151 654.223295c-14.999761-5.217308-30.651685-12.391107-37.825483-18.912742-8.478126-9.782453-14.347597-21.521396-18.260578-33.912502-2.608654-6.521635-9.782453-9.130289-16.304088-6.521635-3.260818 1.304327-5.217308 3.912981-6.521635 6.521635-3.912981 12.391107-10.434616 24.13005-18.912742 34.564666-6.521635 6.521635-21.521396 13.04327-35.868992 18.260578-5.869472 1.956491-9.130289 9.130289-7.173799 14.99976 1.304327 3.260818 3.912981 5.869472 7.173799 7.173799 13.04327 3.912981 24.782213 9.782453 35.216829 18.260578 8.478126 10.434616 14.999761 22.173559 19.564905 35.216829 2.608654 6.521635 9.782453 9.130289 16.304088 6.521635 3.260818-1.304327 5.217308-3.912981 6.521635-6.521635 3.912981-11.738943 9.782453-22.825723 17.608414-32.608175 7.173799-7.173799 23.477886-14.347597 38.477647-19.564905 6.521635-1.304327 10.434616-7.825962 8.478125-14.347597-0.652164-4.565145-3.912981-7.825962-8.478125-9.130289zM755.205335 304.663658c9.130289 2.608654 16.956251 6.521635 24.782213 12.391106 5.869472 7.173799 10.434616 14.999761 13.695433 24.13005 1.956491 4.565145 7.173799 6.521635 11.738943 4.565144 1.956491-0.652164 3.260818-2.608654 4.565145-4.565144 2.608654-7.825962 6.521635-15.651924 12.391106-22.173559 8.478126-5.869472 16.956251-10.434616 26.738704-13.695434 3.912981-1.304327 6.521635-5.869472 5.217308-9.782452-0.652164-2.608654-2.608654-4.565145-5.217308-5.217308-9.130289-2.608654-18.260578-7.173799-26.08654-13.04327-5.869472-7.173799-10.434616-14.999761-13.04327-22.825723-1.956491-4.565145-7.173799-6.521635-11.738943-4.565144-1.956491 0.652164-3.260818 2.608654-4.565145 4.565144-2.608654 8.478126-7.173799 16.304088-13.04327 23.477886-7.825962 5.869472-16.304088 9.782453-24.782213 12.391107-3.912981 1.304327-6.521635 5.869472-4.565144 10.434616 0 1.304327 1.956491 3.260818 3.912981 3.912981zM464.340413 915.740859c-9.130289-2.608654-18.260578-7.173799-26.08654-13.04327-5.869472-6.521635-10.434616-14.999761-13.04327-23.477886-1.956491-4.565145-7.173799-6.521635-11.738943-4.565145-1.956491 0.652164-3.912981 2.608654-4.565145 4.565145-2.608654 8.478126-7.173799 16.304088-13.04327 23.477886-7.825962 5.869472-16.304088 9.782453-24.782213 12.391106-3.912981 1.304327-6.521635 5.869472-5.217308 9.782453 0.652164 2.608654 2.608654 4.565145 5.217308 5.217308 9.130289 2.608654 16.956251 6.521635 24.782213 12.391106 5.869472 7.173799 10.434616 14.999761 13.695434 24.13005 1.956491 4.565145 7.173799 6.521635 11.086779 4.565144 1.956491-0.652164 3.912981-2.608654 4.565145-4.565144 2.608654-8.478126 6.521635-15.651924 12.391106-22.173559 7.825962-5.869472 16.956251-10.434616 26.738704-13.695434 3.912981-1.304327 6.521635-5.869472 5.217308-9.782452-1.304327-2.608654-3.260818-4.565145-5.217308-5.217308zM13.04327 443.574484c-7.173799 0-13.04327 5.869472-13.04327 13.04327s5.869472 13.04327 13.04327 13.04327 13.04327-5.869472 13.04327-13.04327-5.869472-13.04327-13.04327-13.04327zM58.694715 737.048059c-14.347597 0-26.08654 11.738943-26.08654 26.08654s11.738943 26.08654 26.08654 26.08654 26.08654-11.738943 26.08654-26.08654-11.738943-26.08654-26.08654-26.08654zM1154.329398 319.663418c11.08678 0 19.564905-8.478126 19.564905-19.564905s-8.478126-19.564905-19.564905-19.564905-19.564905 8.478126-19.564905 19.564905 8.478126 19.564905 19.564905 19.564905zM766.292114 991.391825c-9.130289 0-16.304088 7.173799-16.304087 16.304087s7.173799 16.304088 16.304087 16.304088 16.304088-7.173799 16.304088-16.304088-7.173799-16.304088-16.304088-16.304087zM964.549819 56.189364c9.130289 2.608654 16.956251 6.521635 24.782213 12.391106 5.869472 7.173799 10.434616 14.999761 13.695433 24.13005 1.956491 4.565145 7.173799 6.521635 11.738943 4.565144 1.956491-0.652164 3.260818-2.608654 4.565145-4.565144 2.608654-8.478126 6.521635-15.651924 12.391106-22.173559 7.825962-5.869472 16.956251-10.434616 26.738704-13.695434 3.912981-1.304327 6.521635-5.869472 5.217308-9.782452-0.652164-2.608654-2.608654-4.565145-5.217308-5.217308-9.130289-2.608654-18.260578-7.173799-26.08654-13.04327-5.869472-7.173799-10.434616-14.999761-13.04327-23.477886-1.956491-4.565145-7.173799-6.521635-11.738943-4.565145-1.956491 0.652164-3.260818 2.608654-4.565145 4.565145-2.608654 8.478126-7.173799 16.304088-13.04327 23.477886-7.825962 5.869472-16.304088 9.782453-25.434376 12.391106-3.912981 1.304327-6.521635 5.869472-5.217308 9.782453 0.652164 2.608654 2.608654 4.565145 5.217308 5.217308zM234.778861 913.132205c-11.08678 0-19.564905 8.478126-19.564906 19.564905s8.478126 19.564905 19.564906 19.564905 19.564905-8.478126 19.564905-19.564905-8.478126-19.564905-19.564905-19.564905zM195.64905 430.531214c0-7.173799-5.869472-13.04327-13.04327-13.04327s-13.04327 5.869472-13.04327 13.04327 5.869472 13.04327 13.04327 13.04327 13.04327-5.869472 13.04327-13.04327zM736.944757 65.319653c11.08678 0 19.564905-8.478126 19.564905-19.564905s-8.478126-19.564905-19.564905-19.564905-19.564905 8.478126-19.564905 19.564905 8.478126 19.564905 19.564905 19.564905zM985.419051 896.175954c-9.130289-2.608654-18.260578-7.173799-26.08654-13.04327-5.869472-6.521635-10.434616-14.999761-13.04327-23.477886-1.956491-4.565145-7.173799-6.521635-11.738943-4.565145-1.956491 0.652164-3.260818 2.608654-4.565145 4.565145-2.608654 8.478126-7.173799 16.304088-13.04327 23.477886-7.825962 5.869472-16.304088 9.782453-25.434376 12.391106-3.912981 1.304327-6.521635 5.869472-5.217309 9.782453 0.652164 2.608654 2.608654 4.565145 5.217309 5.217308 9.130289 2.608654 16.956251 6.521635 24.782213 12.391106 5.869472 7.173799 10.434616 14.999761 13.695433 24.13005 1.956491 4.565145 7.173799 6.521635 11.738943 4.565144 1.956491-0.652164 3.260818-2.608654 4.565145-4.565144 2.608654-7.825962 7.173799-15.651924 12.391106-22.173559 8.478126-5.869472 16.956251-10.434616 26.738704-13.695434 3.912981-1.304327 6.521635-5.869472 5.217308-9.782452 0-2.608654-1.956491-4.565145-5.217308-5.217308zM149.997605 536.181701c-10.434616-3.260818-20.217069-7.825962-29.347357-14.347597-6.521635-7.825962-11.08678-16.304088-14.347597-26.08654-1.956491-5.217308-7.825962-7.173799-13.04327-5.217308-1.956491 1.304327-3.912981 2.608654-5.217308 5.217308-3.260818 9.782453-8.478126 18.260578-14.999761 26.08654-7.825962 6.521635-17.608415 11.08678-27.390867 14.347597-4.565145 1.304327-7.173799 6.521635-5.869471 11.086779 0.652164 2.608654 3.260818 5.217308 5.869471 5.869472 9.782453 3.260818 18.912742 7.825962 27.390867 14.347597 6.521635 7.825962 11.738943 17.608415 14.999761 27.390867 1.956491 5.217308 7.825962 7.173799 13.04327 5.217308 2.608654-1.304327 3.912981-2.608654 5.217308-5.217308 3.260818-9.130289 7.825962-17.608415 13.695433-25.434377 9.130289-7.173799 18.912742-12.391107 29.999521-15.651924 4.565145-1.304327 7.173799-6.521635 5.869472-11.738943-1.304327-2.608654-3.260818-4.565145-5.869472-5.869471zM534.774071 254.447068c-11.08678 0-19.564905 8.478126-19.564905 19.564905s8.478126 19.564905 19.564905 19.564905 19.564905-8.478126 19.564905-19.564905-8.478126-19.564905-19.564905-19.564905z" fill="#d4237a" p-id="13123"></path><path d="M1083.895739 165.100669c-22.825723-31.303848-71.737985-36.521156-146.084624-14.999761-13.04327 4.565145-19.564905 18.260578-15.651924 31.303848 3.912981 12.391107 16.956251 18.912742 29.347358 16.304088 62.607696-18.260578 88.042073-10.434616 93.25938-3.260818 9.782453 13.695434-6.521635 54.781734-51.520916 114.128613-108.259141-192.388233-350.863964-260.213237-541.94787-152.606259S191.736069 506.18218 299.343047 697.918249c14.999761 27.390867 33.912502 52.17308 54.781734 74.998803-73.042312 26.08654-111.519959 23.477886-119.998084 12.391106-5.217308-7.173799-4.565145-34.564666 33.912502-89.998563 7.825962-11.08678 4.565145-26.738704-6.521635-34.564665-11.08678-7.825962-26.08654-4.565145-33.912502 6.521635-44.999282 65.21635-56.086061 114.780776-33.260339 146.736788 14.999761 19.564905 39.12981 27.390867 68.477168 27.390867 38.477647 0 85.433419-13.695434 131.084864-31.303848 170.214674 138.910826 420.645458 114.128613 559.556284-56.086062 90.650727-111.519959 114.780776-262.821891 62.607696-396.515408 63.912023-77.607457 99.128852-149.345442 67.825004-192.388233zM991.288522 502.269199c0 191.083906-154.56275 345.646656-345.646656 345.646656-70.433658 0-138.910826-21.521396-196.953377-61.30337 18.260578-8.478126 34.564666-16.956251 50.21659-24.782213 11.738943-6.521635 16.956251-20.869232 10.434616-33.260338-5.869472-11.738943-20.869232-16.304088-32.608175-10.434616-25.434377 13.04327-48.912263 24.13005-69.781495 33.912502-138.258662-132.389191-142.823807-350.863964-10.434616-489.122626s350.863964-142.823807 488.470462-10.434616c29.999521 28.695194 54.129571 61.955533 71.737986 99.128852-56.086061 63.912023-140.215153 141.51948-254.995929 224.996408a24.260482 24.260482 0 0 0-5.217308 34.564666c4.565145 6.521635 11.738943 9.782453 19.564905 10.434616 5.217308 0 10.434616-1.956491 14.347597-4.565145 80.216111-58.694715 174.127655-136.954335 245.86564-213.909628 9.782453 31.303848 14.999761 65.21635 14.99976 99.128852z" fill="#d4237a" p-id="13124"></path><path d="M618.903163 634.006226c-14.999761 9.782453-29.999521 19.564905-44.999282 28.695194-11.738943 7.173799-14.999761 22.173559-7.825962 33.912502 4.565145 7.173799 12.391107 11.738943 20.869232 11.738943 4.565145 0 9.130289-1.304327 13.04327-3.912981 14.999761-9.130289 30.651685-19.564905 46.303609-29.347357 11.08678-7.173799 14.347597-22.825723 7.173798-33.912502-7.825962-11.738943-22.825723-14.999761-34.564665-7.173799 0.652164-0.652164 0 0 0 0z" fill="#d4237a" p-id="13125"></path></svg>