<?xml version="1.0" standalone="no"?><!DOCTYPE svg PUBLIC "-//W3C//DTD SVG 1.1//EN" "http://www.w3.org/Graphics/SVG/1.1/DTD/svg11.dtd"><svg t="1697601734991" class="icon" viewBox="0 0 1024 1024" version="1.1" xmlns="http://www.w3.org/2000/svg" p-id="1761" xmlns:xlink="http://www.w3.org/1999/xlink" width="200" height="200"><path d="M363.44 319.03m-208.35 0a208.35 208.35 0 1 0 416.7 0 208.35 208.35 0 1 0-416.7 0Z" fill="#E3EEFF" p-id="1762"></path><path d="M140.65 541.26L98.9 485.07l392.93-291.88a35 35 0 0 1 41.76 0l392.3 291.89-41.78 56.16L512.68 264.9z" fill="#333333" p-id="1763"></path><path d="M776.55 870.58H248.23a35 35 0 0 1-35-35l0.36-414.33 70 0.06-0.33 379.3h458.29V421.28h70v414.3a35 35 0 0 1-35 35z" fill="#333333" p-id="1764"></path><path d="M632.47 815.5h-70l0.1-189.46H462.19v189.42h-70V591a35 35 0 0 1 35-35h170.4a35 35 0 0 1 35 35z" fill="#333333" p-id="1765"></path></svg>