<?xml version="1.0" standalone="no"?><!DOCTYPE svg PUBLIC "-//W3C//DTD SVG 1.1//EN" "http://www.w3.org/Graphics/SVG/1.1/DTD/svg11.dtd"><svg t="1701003643104" class="icon" viewBox="0 0 1024 1024" version="1.1" xmlns="http://www.w3.org/2000/svg" p-id="7074" xmlns:xlink="http://www.w3.org/1999/xlink" width="200" height="200"><path d="M0 0h1024v1024H0z" fill="#FFFFFF" fill-opacity="0" p-id="7075"></path><path d="M64 240.512a38.4 38.4 0 0 0-38.4 38.4V780.8A102.4 102.4 0 0 0 128 883.2h768a102.4 102.4 0 0 0 102.4-102.4V278.912a38.4 38.4 0 0 0-38.4-38.4H64z m38.4 76.8h819.2V780.8a25.6 25.6 0 0 1-20.48 25.088L896 806.4H128a25.6 25.6 0 0 1-25.6-25.6V317.312z" fill="#313233" p-id="7076"></path><path d="M896 89.6A102.4 102.4 0 0 1 998.4 192v86.912a38.4 38.4 0 0 1-38.4 38.4H64a38.4 38.4 0 0 1-38.4-38.4V192A102.4 102.4 0 0 1 128 89.6h768z m0 76.8H128a25.6 25.6 0 0 0-25.6 25.6v48.448h819.2V192a25.6 25.6 0 0 0-20.48-25.088L896 166.4z" fill="#313233" p-id="7077"></path><path d="M346.688 598.4a38.4 38.4 0 0 1 38.4 38.4v80a38.4 38.4 0 1 1-76.8 0V636.8a38.4 38.4 0 0 1 38.4-38.4zM506.688 478.4a38.4 38.4 0 0 1 38.4 38.4V716.8a38.4 38.4 0 1 1-76.8 0V516.8a38.4 38.4 0 0 1 38.4-38.4zM666.688 358.4a38.4 38.4 0 0 1 38.4 38.4v320a38.4 38.4 0 1 1-76.8 0v-320a38.4 38.4 0 0 1 38.4-38.4z" fill="#313233" p-id="7078"></path></svg>