<?xml version="1.0" standalone="no"?><!DOCTYPE svg PUBLIC "-//W3C//DTD SVG 1.1//EN" "http://www.w3.org/Graphics/SVG/1.1/DTD/svg11.dtd"><svg t="1697601712579" class="icon" viewBox="0 0 1024 1024" version="1.1" xmlns="http://www.w3.org/2000/svg" p-id="1267" xmlns:xlink="http://www.w3.org/1999/xlink" width="200" height="200"><path d="M384.57 406.67m-232.19 0a232.19 232.19 0 1 0 464.38 0 232.19 232.19 0 1 0-464.38 0Z" fill="#d4237a" p-id="1268"></path><path d="M156 477.25h701v70H156zM408 852H192a35 35 0 0 1-35-35V621h70v161h181zM820 852H604v-70h181V621h70v196a35 35 0 0 1-35 35zM855 407h-70V246H604v-70h216a35 35 0 0 1 35 35zM227 407h-70V211a35 35 0 0 1 35-35h216v70H227z" fill="#d4237a" p-id="1269"></path></svg>