<?xml version="1.0" standalone="no"?><!DOCTYPE svg PUBLIC "-//W3C//DTD SVG 1.1//EN" "http://www.w3.org/Graphics/SVG/1.1/DTD/svg11.dtd"><svg t="1697601785990" class="icon" viewBox="0 0 1024 1024" version="1.1" xmlns="http://www.w3.org/2000/svg" p-id="2776" xmlns:xlink="http://www.w3.org/1999/xlink" width="200" height="200"><path d="M634.85 636.85m-226.39 0a226.39 226.39 0 1 0 452.78 0 226.39 226.39 0 1 0-452.78 0Z" fill="#d4237a" p-id="2777"></path><path d="M827.3 871H207.18a35 35 0 0 1-35-35V185a35 35 0 0 1 35-35h460.4a35 35 0 0 1 23.78 9.33l159.73 148A35 35 0 0 1 862.3 333v503a35 35 0 0 1-35 35z m-585.12-70H792.3V348.28L653.85 220H242.18z" fill="#d4237a" p-id="2778"></path><path d="M341.1 477.62h352.28v70H341.1zM341.1 323.62H567v70H341.1zM341.1 631.62h352.28v70H341.1z" fill="#d4237a" p-id="2779"></path></svg>