<?xml version="1.0" standalone="no"?><!DOCTYPE svg PUBLIC "-//W3C//DTD SVG 1.1//EN" "http://www.w3.org/Graphics/SVG/1.1/DTD/svg11.dtd"><svg t="1701003533037" class="icon" viewBox="0 0 1024 1024" version="1.1" xmlns="http://www.w3.org/2000/svg" p-id="1548" xmlns:xlink="http://www.w3.org/1999/xlink" width="200" height="200"><path d="M721.0496 362.6496h89.6A59.904 59.904 0 0 0 870.4 302.9504v-89.6A59.904 59.904 0 0 0 810.6496 153.6h-89.6a59.904 59.904 0 0 0-59.6992 59.7504v17.92h-107.52c-50.7904 0-89.6 38.8096-89.6 89.6v161.28H362.6496v59.6992h98.56v158.3104c0 50.7904 38.8608 89.6 89.6 89.6h110.5408v20.8896A59.904 59.904 0 0 0 721.0496 870.4h89.6A59.904 59.904 0 0 0 870.4 810.6496v-89.6a59.904 59.904 0 0 0-59.7504-59.6992h-89.6a59.904 59.904 0 0 0-59.6992 59.6992v11.9808h-107.52c-17.92 0-29.9008-11.9808-29.9008-29.9008v-158.2592h137.4208v11.9296a59.904 59.904 0 0 0 59.6992 59.7504h89.6A59.904 59.904 0 0 0 870.4 556.8v-89.6a59.904 59.904 0 0 0-59.7504-59.7504h-89.6a59.904 59.904 0 0 0-59.6992 59.7504v17.92h-137.4208V320.8704c0-17.92 11.9808-29.9008 29.9008-29.9008h107.52v11.9808a59.904 59.904 0 0 0 59.6992 59.6992z m0-149.2992h89.6v89.6h-89.6v-89.6z m0 507.6992h89.6v89.6h-89.6v-89.6z m0-253.8496h89.6v89.6h-89.6v-89.6zM302.9504 422.4h-89.6A59.904 59.904 0 0 0 153.6 482.1504v89.6a59.904 59.904 0 0 0 59.7504 59.6992h89.6a59.904 59.904 0 0 0 59.6992-59.6992v-89.6A59.904 59.904 0 0 0 302.9504 422.4z m0 149.3504h-89.6v-89.6h89.6v89.6z" fill="#111032" p-id="1549"></path></svg>