<?xml version="1.0" standalone="no"?><!DOCTYPE svg PUBLIC "-//W3C//DTD SVG 1.1//EN" "http://www.w3.org/Graphics/SVG/1.1/DTD/svg11.dtd"><svg t="1701003620223" class="icon" viewBox="0 0 1024 1024" version="1.1" xmlns="http://www.w3.org/2000/svg" p-id="6018" xmlns:xlink="http://www.w3.org/1999/xlink" width="200" height="200"><path d="M870.4 443.733333c-25.6 0-42.666667 17.066667-42.666667 42.666667v170.666667l-277.333333 179.2v-285.866667l311.466667-192c12.8-8.533333 21.333333-21.333333 21.333333-38.4s-8.533333-29.866667-25.6-34.133333l-337.066667-170.666667c-12.8-4.266667-25.6-4.266667-38.4 0l-337.066666 170.666667c-4.266667 0-8.533333 4.266667-8.533334 8.533333V298.666667c-8.533333-4.266667-8.533333-4.266667-12.8 0v4.266666c0 4.266667-4.266667 8.533333-4.266666 12.8v384c0 12.8 8.533333 29.866667 21.333333 38.4l341.333333 209.066667h8.533334c4.266667 0 8.533333 4.266667 12.8 4.266667 4.266667 0 8.533333 0 12.8-4.266667h8.533333l362.666667-234.666667c12.8-8.533333 21.333333-21.333333 21.333333-34.133333v-192c4.266667-21.333333-17.066667-42.666667-38.4-42.666667z m-371.2-247.466666l251.733333 123.733333-243.2 153.6-256-153.6 247.466667-123.733333zM204.8 392.533333l256 153.6v290.133334l-256-157.866667V392.533333z" fill="#231F20" p-id="6019"></path><path d="M362.666667 537.6l-46.933334-29.866667c-21.333333-12.8-46.933333-8.533333-59.733333 12.8-12.8 21.333333-8.533333 46.933333 12.8 59.733334l46.933333 29.866666c8.533333 4.266667 17.066667 8.533333 25.6 8.533334 12.8 0 25.6-8.533333 34.133334-17.066667 12.8-25.6 8.533333-51.2-12.8-64z" fill="#231F20" p-id="6020"></path></svg>