<?xml version="1.0" standalone="no"?><!DOCTYPE svg PUBLIC "-//W3C//DTD SVG 1.1//EN" "http://www.w3.org/Graphics/SVG/1.1/DTD/svg11.dtd"><svg t="1701003525052" class="icon" viewBox="0 0 1024 1024" version="1.1" xmlns="http://www.w3.org/2000/svg" p-id="1388" xmlns:xlink="http://www.w3.org/1999/xlink" width="200" height="200"><path d="M819.2 243.2c0-14.08-9.216-25.6-20.48-25.6h-193.8432l-56.7296 70.912-14.9504 18.688H225.28c-11.264 0-20.48 11.52-20.48 25.6v448c0 14.08 9.216 25.6 20.48 25.6h573.44c11.264 0 20.48-11.52 20.48-25.6V243.2zM598.528 153.6h200.192c39.5776 0 71.68 40.0896 71.68 89.6v537.6c0 49.5104-32.1024 89.6-71.68 89.6H225.28c-39.5776 0-71.68-40.0896-71.68-89.6V332.8c0-49.5104 32.1024-89.6 71.68-89.6H512l61.184-76.4928A32.6656 32.6656 0 0 1 598.5792 153.6zM281.6 709.376c0 17.7152 11.4176 32 25.6 32h409.6c14.1824 0 25.6-14.2848 25.6-32 0-17.664-11.4176-32-25.6-32H307.2c-14.1824 0-25.6 14.336-25.6 32z" fill="#111032" p-id="1389"></path></svg>