<?xml version="1.0" standalone="no"?><!DOCTYPE svg PUBLIC "-//W3C//DTD SVG 1.1//EN" "http://www.w3.org/Graphics/SVG/1.1/DTD/svg11.dtd"><svg t="1697602641119" class="icon" viewBox="0 0 1024 1024" version="1.1" xmlns="http://www.w3.org/2000/svg" p-id="2757" xmlns:xlink="http://www.w3.org/1999/xlink" width="200" height="200"><path d="M325.312 552.832c-45.248-33.92-71.68-85.376-71.68-133.376 0-32.192 11.84-63.232 34.24-90.944a51.84 51.84 0 0 0 9.408-18.944c1.28-4.608 1.92-9.152 2.432-12.928 0.896-7.616 1.216-16.256 1.344-24.384 0.128-8.192 0.128-15.68 0.128-23.04a924.352 924.352 0 0 1 0.64-38.656l4.224 2.56c8.32 4.992 17.856 10.688 27.136 15.68 23.168 12.288 56.192 26.24 93.44 16.768a350.592 350.592 0 0 1 86.4-10.624 347.52 347.52 0 0 1 98.496 13.952c18.496 5.504 36.864 2.432 50.432-1.28 14.336-3.968 28.8-10.24 41.792-16.64 9.152-4.48 18.432-9.408 27.2-14.144l-1.536 11.072c-1.664 12.224-3.52 25.408-4.48 36.224a182.144 182.144 0 0 0-0.896 26.752c0.256 4.416 0.832 9.664 2.24 15.168 1.344 5.12 4.096 13.056 10.24 20.48 23.424 28.224 35.84 60.032 35.84 92.928a166.4 166.4 0 0 1-65.92 133.376c-25.664 19.328-60.544 33.664-101.568 42.176l-39.168 8.128 16.256 78.336 39.168-8.128c48.896-10.176 95.68-28.224 133.376-56.512a246.4 246.4 0 0 0 97.856-197.376c0-50.88-18.24-97.664-48.512-136.832m-69.888-106.88v0.128c-0.256-1.024-0.192-1.28 0-0.128z m69.888 106.88c0.064-2.688 0.256-6.336 0.704-11.008 0.896-9.344 2.24-19.136 3.712-29.888l2.944-21.632c2.112-16.896 4.48-39.168 1.792-56.576-1.152-7.616-4.736-25.216-20.224-37.248-19.712-15.232-41.408-9.856-53.12-4.48-11.648 5.504-24.32 12.416-36.096 18.88l-1.344 0.704c-11.712 6.4-22.912 12.48-33.664 17.792a170.112 170.112 0 0 1-27.84 11.328 34.048 34.048 0 0 1-7.552 1.408 427.712 427.712 0 0 0-120.128-16.96c-36.992 0-72.704 4.608-106.24 13.12-6.72 1.728-16.64 0.448-36.032-9.92a494.464 494.464 0 0 1-22.4-12.928l-7.68-4.608a315.584 315.584 0 0 0-36.352-19.264 52.672 52.672 0 0 0-51.264 4.032 63.36 63.36 0 0 0-23.424 32.576c-6.144 17.92-7.616 40.896-8.128 58.944-0.32 10.816-0.32 23.936-0.32 35.392 0 7.168 0 13.76-0.128 18.56a222.912 222.912 0 0 1-0.576 13.952c-29.248 38.72-46.784 84.736-46.784 134.656 0 76.032 40.64 150.08 103.68 197.376 42.368 31.744 94.016 50.944 149.312 60.224l39.424 6.656 13.248-78.912-39.424-6.592c-45.952-7.68-84.8-23.04-114.56-45.376m91.52-345.344l-0.192-0.64 0.192 0.64z" fill="#d4237a" p-id="2758"></path><path d="M136.832 681.408c9.408 1.152 24.64 4.352 38.08 9.6 6.656 2.624 11.712 5.312 15.04 7.68a19.072 19.072 0 0 1 2.56 2.112c9.856 20.608 31.36 53.888 66.816 78.912 27.2 19.2 62.016 32.896 103.872 32.896-0.192 35.2-1.344 71.36-2.368 93.184l79.872 3.712c1.856-39.232 4.672-132.736-0.128-182.016-3.072-31.872 14.272-64.128 22.912-74.88l-62.464-50.048c-15.808 19.84-44.992 71.04-40.32 130.048a97.6 97.6 0 0 1-55.296-18.304 131.328 131.328 0 0 1-40.832-48.384 84.608 84.608 0 0 0-28.352-32.512 150.912 150.912 0 0 0-32.128-16.832 252.864 252.864 0 0 0-57.152-14.528l-10.112 79.36z m468.096 46.08c3.072-31.872-14.272-64.128-22.912-74.88l62.464-50.048c16 20.096 45.888 72.576 40.064 132.672-4.16 42.624-1.728 130.56 0.128 170.56l-79.936 3.712c-1.792-39.232-4.608-132.736 0.192-182.016z" fill="#d4237a" p-id="2759"></path></svg>