<?xml version="1.0" standalone="no"?><!DOCTYPE svg PUBLIC "-//W3C//DTD SVG 1.1//EN" "http://www.w3.org/Graphics/SVG/1.1/DTD/svg11.dtd"><svg t="1701003591470" class="icon" viewBox="0 0 1024 1024" version="1.1" xmlns="http://www.w3.org/2000/svg" p-id="4906" xmlns:xlink="http://www.w3.org/1999/xlink" width="200" height="200"><path d="M52.736 11.264c20.992 0 39.424 15.36 43.008 36.352l0.512 7.168v877.568H977.92c20.992 0 39.424 15.36 43.008 36.352l0.512 7.168c0 20.992-15.36 39.424-36.352 43.008H9.216V54.272c0-23.552 19.456-43.008 43.52-43.008z" fill="#454859" p-id="4907"></path><path d="M799.744 747.008c-3.584 0-6.656-1.536-9.216-4.096l-56.832-63.488c-2.048-2.56-3.072-5.632-3.072-8.704 0-3.072 1.536-6.144 4.096-8.704l63.488-56.832c2.048-2.048 5.12-3.072 8.192-3.072 3.584 0 7.168 1.536 9.216 4.096l56.32 63.488c2.048 2.56 3.584 5.632 3.072 9.216 0 3.072-1.536 6.144-4.096 8.192l-63.488 56.32c-2.048 2.048-5.12 3.584-7.68 3.584zM409.088 881.664c-3.584 0-6.656-1.536-9.216-4.096l-56.32-63.488c-2.048-2.56-3.072-5.632-3.072-8.704 0-3.072 1.536-6.144 4.096-8.704l64-56.832c2.048-1.536 5.12-2.56 7.68-2.56 3.584 0 6.656 1.536 9.216 4.096l56.832 63.488c2.048 2.56 3.072 5.632 3.072 8.704 0 3.072-1.536 6.144-4.096 8.704l-63.488 56.832c-2.56 1.536-5.632 2.56-8.704 2.56z m-142.336-111.104c-3.584 0-6.656-1.536-9.216-4.096l-56.32-63.488c-2.048-2.56-3.072-5.632-3.072-8.704 0-3.072 1.536-6.144 4.096-8.192l63.488-56.32c2.048-2.048 5.12-3.072 8.192-3.072 3.584 0 7.168 1.536 9.216 4.096l56.32 63.488c2.048 2.56 3.072 5.632 3.072 8.704 0 3.072-1.536 6.144-4.096 8.704l-63.488 56.832c-2.56 1.024-5.12 2.048-8.192 2.048z m377.856-129.024c-3.584 0-6.656-1.536-9.216-4.096l-56.32-63.488c-4.608-5.12-4.096-12.8 1.024-17.408l63.488-56.32c2.048-2.048 5.12-3.072 8.192-3.072 3.584 0 7.168 1.536 9.216 4.096l56.32 63.488c4.608 5.12 4.096 12.8-1.024 17.408l-63.488 56.832c-2.56 1.536-5.12 2.56-8.192 2.56z m-172.544 0c-3.584 0-6.656-1.536-9.216-4.096l-56.32-63.488c-2.048-2.56-3.072-5.632-3.072-8.704 0-3.072 1.536-6.144 4.096-8.704l63.488-56.32c2.048-2.048 5.12-3.072 8.192-3.072 3.584 0 7.168 1.536 9.216 4.096l56.32 63.488c2.048 2.56 3.072 5.632 3.072 8.704 0 3.072-1.536 6.144-4.096 8.704l-63.488 56.832c-2.048 1.536-5.12 2.56-8.192 2.56z m-91.136-266.24c-3.584 0-6.656-1.536-9.216-4.096L314.88 307.712c-4.608-5.12-4.096-12.8 1.024-17.408l63.488-56.832c2.048-2.048 5.12-3.072 8.192-3.072 3.584 0 6.656 1.536 9.216 4.096l56.832 63.488c4.608 5.12 4.096 12.8-1.024 17.408L388.608 372.224c-2.048 1.536-5.12 3.072-7.68 3.072z" fill="#454859" p-id="4908"></path><path d="M851.456 848.384c-206.336 0-371.2-58.88-490.496-174.592-204.8-198.656-198.656-486.4-198.144-498.688l0.512-10.24 68.096 1.536-0.512 10.24c0 2.56-4.096 271.36 178.176 448 105.984 102.912 254.976 155.136 442.88 155.136 18.432 0 36.864-0.512 55.808-1.536l10.24-0.512 3.584 68.096-10.24 0.512c-19.968 1.536-40.448 2.048-59.904 2.048z" fill="#454859" p-id="4909"></path></svg>