<?xml version="1.0" standalone="no"?><!DOCTYPE svg PUBLIC "-//W3C//DTD SVG 1.1//EN" "http://www.w3.org/Graphics/SVG/1.1/DTD/svg11.dtd"><svg t="1701016127185" class="icon" viewBox="0 0 1024 1024" version="1.1" xmlns="http://www.w3.org/2000/svg" p-id="4022" xmlns:xlink="http://www.w3.org/1999/xlink" width="200" height="200"><path d="M949.013 945.365a42.667 42.667 0 0 0 0-60.352L798.187 734.187a42.667 42.667 0 0 0-60.374 60.33l150.87 150.827a42.667 42.667 0 0 0 60.33 0z" p-id="4023"></path><path d="M512 810.667c-164.95 0-298.667-133.718-298.667-298.667S347.051 213.333 512 213.333 810.667 347.051 810.667 512 676.949 810.667 512 810.667zM512 896c212.075 0 384-171.925 384-384S724.075 128 512 128 128 299.925 128 512s171.925 384 384 384z" p-id="4024"></path></svg>