<?xml version="1.0" standalone="no"?><!DOCTYPE svg PUBLIC "-//W3C//DTD SVG 1.1//EN" "http://www.w3.org/Graphics/SVG/1.1/DTD/svg11.dtd"><svg t="1701350156857" class="icon" viewBox="0 0 1024 1024" version="1.1" xmlns="http://www.w3.org/2000/svg" p-id="3048" xmlns:xlink="http://www.w3.org/1999/xlink" width="1600" height="1600"><path d="M512 96.736a16 16 0 1 1 0 32c-212.064 0-384 171.936-384 384 0 212.096 171.936 384 384 384s384-171.904 384-384c0-62.304-14.848-122.464-42.88-176.576a16 16 0 1 1 28.384-14.72A414.24 414.24 0 0 1 928 512.736c0 229.76-186.24 416-416 416s-416-186.24-416-416 186.24-416 416-416z m284.864 112.832c11.872 11.2 23.104 23.04 33.6 35.52a16 16 0 0 1-24.48 20.576c-9.696-11.52-20.064-22.464-31.04-32.768a16 16 0 1 1 21.92-23.328z" fill="#d4237a" p-id="3049"></path><path d="M496 192a16 16 0 0 1 16-16c185.568 0 336 150.432 336 336a16 16 0 1 1-32 0A304 304 0 0 0 512 208a16 16 0 0 1-16-16z m-320 320a16 16 0 1 1 32 0 304 304 0 0 0 304 304 16 16 0 1 1 0 32c-185.568 0-336-150.432-336-336z" fill="#d4237a" p-id="3050"></path><path d="M512 256a256 256 0 1 1 0 512 256 256 0 0 1 0-512z m85.952 352.032h-171.904C442.784 684.48 477.888 736 512 736c34.08 0 69.216-51.552 85.952-127.968z m-204.64 0H309.568a224.672 224.672 0 0 0 130.88 116.288c-20.96-28.32-37.504-68.8-47.136-116.32z m321.12 0h-83.744c-9.6 47.52-26.176 87.968-47.168 116.288a224.64 224.64 0 0 0 130.912-116.288zM384.992 480H290.24a225.92 225.92 0 0 0 7.04 96.032h90.72A502.336 502.336 0 0 1 384.992 480z m221.952 0h-189.888a478.272 478.272 0 0 0 3.296 96h183.296a467.2 467.2 0 0 0 3.296-96z m126.784 0h-94.72a514.464 514.464 0 0 1-3.04 96l90.752 0.032A224.032 224.032 0 0 0 733.76 480z m-293.248-180.32l-2.048 0.672A224.544 224.544 0 0 0 297.28 448h90.752c7.904-61.344 26.88-113.824 52.448-148.32zM512 288c-38.656 0-78.688 66.336-91.648 160h183.296c-12.576-90.88-50.656-156.032-88.192-159.84L512 288z m71.552 11.68l0.48 0.64c25.28 34.528 44.096 86.72 51.936 147.68h90.752a224.544 224.544 0 0 0-143.168-148.32z" fill="#d4237a" p-id="3051"></path></svg>